<svg width="41" height="40" viewBox="0 0 41 40" fill="none" xmlns="http://www.w3.org/2000/svg">
<path d="M17.2512 4.81504C20.3125 4.67917 23.3747 5.07014 26.2109 5.95898C29.0471 6.84782 31.5846 8.21174 33.6353 9.94969C35.6861 11.6876 37.1975 13.7551 38.0577 15.9988C38.9179 18.2425 39.1047 20.605 38.6044 22.9113C38.104 25.2175 36.9294 27.4084 35.1674 29.3216C33.4054 31.2347 31.1012 32.8212 28.4257 33.9633C25.7501 35.1054 22.7717 35.774 19.7111 35.9195C16.6505 36.0649 13.5862 35.6836 10.7452 34.8037L13.1158 30.3564C15.0814 30.9652 17.2016 31.229 19.3192 31.1284C21.4368 31.0277 23.4976 30.5652 25.3488 29.7749C27.2 28.9847 28.7942 27.887 30.0134 26.5633C31.2325 25.2396 32.0452 23.7237 32.3914 22.1281C32.7376 20.5324 32.6083 18.8978 32.0132 17.3453C31.418 15.7929 30.3722 14.3624 28.9533 13.16C27.5344 11.9575 25.7788 11.0138 23.8164 10.3988C21.854 9.78382 19.7353 9.5133 17.6172 9.60731L17.2512 4.81504Z" fill="url(#paint0_linear_2386_6)"/>
<rect x="3.04071" y="3.41956" width="13.4221" height="12.5505" rx="2.73829" fill="url(#paint1_linear_2386_6)"/>
<path d="M7.79394 26H4.71871L6.3566 17.7437H14.6129L13.1087 25.3649C12.4402 28.6853 11.3037 31.3594 9.69924 33.3872C8.11706 35.4374 5.73264 36.5516 2.54599 36.7299L3.08081 34.2563C4.12817 34.2563 4.99726 33.7549 5.68807 32.7521C6.40117 31.7716 7.01399 29.9777 7.52652 27.3705L7.79394 26Z" fill="url(#paint2_linear_2386_6)"/>
<defs>
<linearGradient id="paint0_linear_2386_6" x1="31.9049" y1="17.3447" x2="2.01115" y2="6.49644" gradientUnits="userSpaceOnUse">
<stop stop-color="#4A25E1"/>
<stop offset="0.927091" stop-color="#0072F8"/>
</linearGradient>
<linearGradient id="paint1_linear_2386_6" x1="16.4628" y1="15.9701" x2="3.04071" y2="3.41956" gradientUnits="userSpaceOnUse">
<stop offset="1" stop-color="#00EAF9"/>
</linearGradient>
<linearGradient id="paint2_linear_2386_6" x1="11.1353" y1="27.1824" x2="44.6472" y2="-5.72072" gradientUnits="userSpaceOnUse">
<stop stop-color="#4A25E1"/>
<stop offset="0.927091" stop-color="#0072F8"/>
</linearGradient>
</defs>
</svg>
