<svg width="54" height="54" viewBox="0 0 54 54" fill="none" xmlns="http://www.w3.org/2000/svg">
<g filter="url(#filter0_di_2295_3)">
<path d="M36.9597 14.043C36.9018 14.043 36.8525 14.0318 36.812 14.0095C36.7714 13.9873 36.7395 13.9483 36.7164 13.8926L36.2122 12.7566L34.9433 12.222C34.8853 12.1997 34.8448 12.1691 34.8216 12.1301C34.7984 12.0911 34.7868 12.0438 34.7868 11.9881C34.7868 11.9324 34.7984 11.885 34.8216 11.8461C34.8448 11.8071 34.8853 11.7765 34.9433 11.7542L36.2122 11.2363L36.7164 10.1504C36.7395 10.0947 36.7714 10.0557 36.812 10.0334C36.8525 10.0111 36.9018 10 36.9597 10C37.0177 10 37.0669 10.0111 37.1075 10.0334C37.1481 10.0557 37.1799 10.0947 37.2031 10.1504L37.7072 11.2363L38.9762 11.7542C39.0341 11.7765 39.0747 11.8071 39.0979 11.8461C39.1211 11.885 39.1327 11.9324 39.1327 11.9881C39.1327 12.0438 39.1211 12.0911 39.0979 12.1301C39.0747 12.1691 39.0341 12.1997 38.9762 12.222L37.7072 12.7566L37.2031 13.8926C37.1799 13.9483 37.1481 13.9873 37.1075 14.0095C37.0669 14.0318 37.0177 14.043 36.9597 14.043ZM36.9597 24C36.9134 24 36.867 23.9889 36.8207 23.9666C36.7743 23.9443 36.7395 23.9053 36.7164 23.8496L36.2122 22.7637L34.9607 22.2458C34.9027 22.2235 34.8621 22.1929 34.839 22.1539C34.8158 22.115 34.8042 22.0676 34.8042 22.0119C34.8042 21.9562 34.8158 21.9089 34.839 21.8699C34.8621 21.8309 34.9027 21.8003 34.9607 21.778L36.2122 21.2601L36.7164 20.1074C36.7395 20.0517 36.7714 20.0127 36.812 19.9905C36.8525 19.9682 36.9018 19.957 36.9597 19.957C37.0177 19.957 37.0669 19.9682 37.1075 19.9905C37.1481 20.0127 37.1799 20.0517 37.2031 20.1074L37.7072 21.2601L38.9588 21.778C39.0168 21.8003 39.0573 21.8309 39.0805 21.8699C39.1037 21.9089 39.1153 21.9562 39.1153 22.0119C39.1153 22.0676 39.1037 22.115 39.0805 22.1539C39.0573 22.1929 39.0168 22.2235 38.9588 22.2458L37.7072 22.7637L37.2031 23.8496C37.1799 23.9053 37.1452 23.9443 37.0988 23.9666C37.0524 23.9889 37.0061 24 36.9597 24ZM29.3285 21.1098C29.2357 21.1098 29.1459 21.0847 29.059 21.0346C28.9721 20.9845 28.9055 20.9149 28.8591 20.8258L27.7292 18.5036L25.2955 17.4511C25.2028 17.4065 25.1304 17.3425 25.0782 17.259C25.0261 17.1754 25 17.0891 25 17C25 16.9109 25.0261 16.8246 25.0782 16.7411C25.1304 16.6575 25.2028 16.5935 25.2955 16.5489L27.7292 15.4964L28.8591 13.1909C28.9055 13.0907 28.9721 13.0155 29.059 12.9654C29.1459 12.9153 29.2357 12.8902 29.3285 12.8902C29.4212 12.8902 29.511 12.9153 29.5979 12.9654C29.6848 13.0155 29.7514 13.0851 29.7978 13.1742L30.9451 15.4964L33.3614 16.5489C33.4657 16.5935 33.5439 16.6575 33.5961 16.7411C33.6482 16.8246 33.6743 16.9109 33.6743 17C33.6743 17.0891 33.6482 17.1754 33.5961 17.259C33.5439 17.3425 33.4657 17.4065 33.3614 17.4511L30.9451 18.5036L29.7978 20.8258C29.7514 20.926 29.6848 20.9984 29.5979 21.043C29.511 21.0875 29.4212 21.1098 29.3285 21.1098Z" fill="url(#paint0_linear_2295_3)"/>
</g>
<defs>
<filter id="filter0_di_2295_3" x="0.487128" y="0.138497" width="53.0151" height="52.8825" filterUnits="userSpaceOnUse" color-interpolation-filters="sRGB">
<feFlood flood-opacity="0" result="BackgroundImageFix"/>
<feColorMatrix in="SourceAlpha" type="matrix" values="0 0 0 0 0 0 0 0 0 0 0 0 0 0 0 0 0 0 127 0" result="hardAlpha"/>
<feOffset dx="-5.07163" dy="9.57974"/>
<feGaussianBlur stdDeviation="9.72062"/>
<feComposite in2="hardAlpha" operator="out"/>
<feColorMatrix type="matrix" values="0 0 0 0 0.0506089 0 0 0 0 0.0159861 0 0 0 0 0.191833 0 0 0 0.25 0"/>
<feBlend mode="normal" in2="BackgroundImageFix" result="effect1_dropShadow_2295_3"/>
<feBlend mode="normal" in="SourceGraphic" in2="effect1_dropShadow_2295_3" result="shape"/>
<feColorMatrix in="SourceAlpha" type="matrix" values="0 0 0 0 0 0 0 0 0 0 0 0 0 0 0 0 0 0 127 0" result="hardAlpha"/>
<feOffset dy="8"/>
<feGaussianBlur stdDeviation="5"/>
<feComposite in2="hardAlpha" operator="arithmetic" k2="-1" k3="1"/>
<feColorMatrix type="matrix" values="0 0 0 0 0.901485 0 0 0 0 0.901485 0 0 0 0 0.998568 0 0 0 1 0"/>
<feBlend mode="normal" in2="shape" result="effect2_innerShadow_2295_3"/>
</filter>
<linearGradient id="paint0_linear_2295_3" x1="38.53" y1="10.9543" x2="25.245" y2="20.7677" gradientUnits="userSpaceOnUse">
<stop offset="0.146909" stop-color="#4A25E1"/>
<stop offset="0.91255" stop-color="#7B5AFF"/>
</linearGradient>
</defs>
</svg>
