<svg width="164" height="56" viewBox="0 0 164 56" fill="none" xmlns="http://www.w3.org/2000/svg">
<g opacity="0.3" filter="url(#filter0_f_2258_3703)">
<path d="M25.6396 30C44.9192 27.1252 94.4998 23.1006 138.585 30" stroke="url(#paint0_linear_2258_3703)" stroke-width="7.23902" stroke-linecap="round"/>
</g>
<path fill-rule="evenodd" clip-rule="evenodd" d="M138.452 29.8043C94.4825 26.3637 44.9953 28.3712 25.7669 29.8048C25.0647 29.8571 24.4386 29.4753 24.3684 28.9519C24.2982 28.4285 24.8104 27.9618 25.5125 27.9095C44.8433 26.4683 94.5172 24.4512 138.719 27.91C139.421 27.9649 139.93 28.4335 139.856 28.9566C139.783 29.4797 139.154 29.8592 138.452 29.8043Z" fill="url(#paint1_linear_2258_3703)"/>
<defs>
<filter id="filter0_f_2258_3703" x="0.302555" y="0.853962" width="163.62" height="54.4831" filterUnits="userSpaceOnUse" color-interpolation-filters="sRGB">
<feFlood flood-opacity="0" result="BackgroundImageFix"/>
<feBlend mode="normal" in="SourceGraphic" in2="BackgroundImageFix" result="shape"/>
<feGaussianBlur stdDeviation="10.8585" result="effect1_foregroundBlur_2258_3703"/>
</filter>
<linearGradient id="paint0_linear_2258_3703" x1="35.1408" y1="31.2605" x2="131.295" y2="10.8096" gradientUnits="userSpaceOnUse">
<stop stop-color="#3D1DFF"/>
<stop offset="0.223953" stop-color="#6147FF"/>
<stop offset="0.46354" stop-color="#D451FF"/>
<stop offset="0.750004" stop-color="#EC458D"/>
<stop offset="1" stop-color="#FFCA8B"/>
</linearGradient>
<linearGradient id="paint1_linear_2258_3703" x1="35.1409" y1="29.4874" x2="120.245" y2="-6.71406" gradientUnits="userSpaceOnUse">
<stop stop-color="#3D1DFF"/>
<stop offset="0.223953" stop-color="#6147FF"/>
<stop offset="0.46354" stop-color="#D451FF"/>
<stop offset="0.750004" stop-color="#EC458D"/>
<stop offset="1" stop-color="#FFCA8B"/>
</linearGradient>
</defs>
</svg>
